<?xml version="1.0" standalone="no"?>
<!DOCTYPE svg PUBLIC "-//W3C//DTD SVG 20010904//EN"
 "http://www.w3.org/TR/2001/REC-SVG-20010904/DTD/svg10.dtd">
<svg version="1.0" xmlns="http://www.w3.org/2000/svg"
 width="332.000000pt" height="332.000000pt" viewBox="0 0 332.000000 332.000000"
 preserveAspectRatio="xMidYMid meet">
<metadata>
Created by potrace 1.14, written by Peter Selinger 2001-2017
</metadata>
<g transform="translate(0.000000,332.000000) scale(0.100000,-0.100000)"
fill="#000000" stroke="none">
<path d="M2754 2665 c-3 -8 -25 -23 -48 -35 -23 -11 -55 -33 -71 -50 -15 -16
-33 -26 -39 -23 -6 3 -8 3 -4 -2 4 -4 -30 -62 -76 -129 -45 -66 -97 -148 -116
-181 -18 -33 -47 -85 -64 -115 -17 -30 -36 -73 -43 -95 -17 -57 -76 -220 -106
-290 -32 -78 -107 -317 -106 -341 1 -25 34 70 60 170 11 44 33 107 49 140 76
164 92 204 95 237 3 35 93 237 94 212 1 -10 -9 -36 -67 -176 -8 -20 -13 -39
-10 -42 7 -7 78 166 94 229 12 50 79 170 132 238 29 36 52 70 52 76 0 5 7 13
16 16 8 3 13 10 10 15 -7 11 89 97 117 105 18 4 19 1 14 -52 -3 -31 -12 -76
-20 -99 -8 -24 -10 -44 -5 -45 6 -2 6 -13 0 -29 -6 -14 -8 -36 -6 -50 3 -13
-5 -76 -16 -139 -23 -124 -32 -191 -31 -229 1 -13 -6 -59 -15 -101 -8 -42 -14
-81 -13 -86 1 -5 -1 -34 -5 -64 -3 -30 -9 -129 -11 -220 -3 -91 -7 -177 -9
-193 -3 -18 -1 -25 7 -20 7 4 8 0 3 -13 -4 -10 -9 -50 -12 -89 -2 -38 -6 -77
-9 -85 -10 -35 -14 -130 -5 -130 6 0 10 10 11 23 1 12 2 41 3 64 1 29 13 58
39 97 20 31 37 59 37 62 0 14 -34 -23 -47 -51 -12 -28 -13 -26 -8 35 2 36 4
91 4 122 0 45 5 65 25 95 27 38 33 63 17 63 -5 0 -16 -17 -24 -37 l-15 -38 0
75 c0 54 6 86 20 113 11 22 22 37 24 34 7 -6 -16 -88 -29 -105 -5 -7 -7 -15
-3 -19 3 -3 6 0 7 8 0 8 4 6 9 -6 8 -18 9 -17 9 8 1 15 8 41 16 58 9 16 13 35
9 41 -5 7 -7 28 -6 48 l2 35 -20 -33 c-11 -18 -20 -39 -20 -47 0 -7 -4 -16 -9
-20 -13 -7 -6 76 7 102 6 11 18 25 26 33 9 7 16 22 16 34 0 18 -3 16 -21 -11
-12 -18 -23 -33 -25 -33 -10 0 -2 21 26 61 16 24 30 53 29 64 0 14 -6 8 -21
-20 -17 -31 -23 -36 -26 -22 -2 10 12 45 32 77 38 61 41 70 28 70 -5 0 -16
-17 -27 -37 -10 -21 -20 -33 -22 -26 -2 6 3 25 11 42 18 34 20 45 7 37 -18
-11 2 79 26 116 28 45 30 73 3 38 -15 -19 -20 -21 -20 -9 0 9 7 22 16 30 23
19 44 64 44 96 0 16 7 39 16 51 12 17 12 22 2 22 -7 0 -22 -19 -32 -42 -13
-29 -21 -37 -23 -26 -3 9 5 38 16 64 25 56 26 65 5 57 -13 -5 -15 -2 -9 18 4
13 14 33 21 44 19 26 18 41 -1 25 -26 -22 -18 8 10 36 27 27 35 55 10 34 -8
-7 -15 -10 -15 -7 0 14 24 57 32 57 4 0 8 7 8 15 0 9 -6 12 -16 8 -14 -5 -15
-3 -6 14 12 22 12 63 0 63 -5 0 -11 -7 -14 -15z m-21 -440 c-3 -9 -8 -14 -10
-11 -3 3 -2 9 2 15 9 16 15 13 8 -4z"/>
<path d="M1684 2645 c-78 -36 -88 -51 -197 -285 -20 -41 -60 -136 -90 -211
-62 -154 -72 -174 -151 -314 -31 -56 -81 -163 -111 -239 -53 -133 -68 -165
-167 -341 -124 -223 -168 -284 -279 -391 -102 -98 -252 -192 -372 -235 -31
-11 -43 -11 -70 0 -17 7 -54 20 -82 28 -27 9 -68 24 -89 34 -22 10 -42 16 -45
14 -9 -10 35 -35 89 -50 30 -9 73 -24 95 -34 65 -30 202 -24 275 11 78 38 253
149 303 192 89 78 297 330 297 360 0 3 19 44 41 93 33 71 140 324 165 393 3 8
-6 -5 -20 -29 -14 -23 -26 -47 -26 -52 0 -5 -6 -9 -12 -9 -7 -1 -33 -24 -58
-53 l-45 -52 48 38 c26 21 47 36 47 33 0 -3 -18 -50 -41 -103 -22 -54 -43
-106 -46 -115 -3 -10 -10 -18 -15 -18 -17 0 -99 -63 -89 -69 5 -3 1 -17 -10
-30 -14 -17 -19 -19 -19 -8 0 9 5 19 11 23 8 5 8 9 -1 14 -7 5 12 27 55 65 71
63 81 85 17 39 -38 -27 -87 -87 -87 -107 0 -5 -7 -14 -16 -20 -8 -7 -18 -20
-22 -29 -3 -10 -12 -18 -19 -18 -9 0 -10 3 -2 8 6 4 15 18 19 32 14 50 71 119
128 156 61 40 83 61 75 70 -3 2 -25 -10 -49 -29 -24 -18 -51 -36 -59 -41 -25
-13 52 54 93 80 20 13 37 32 37 42 0 9 -3 13 -8 7 -15 -21 -102 -86 -102 -76
0 5 5 13 10 16 6 3 10 15 10 26 0 10 10 27 22 37 33 26 128 126 128 135 0 15
-41 -15 -50 -36 -4 -12 -25 -38 -46 -57 -26 -25 -35 -29 -29 -15 4 11 14 38
22 60 8 22 19 44 24 50 5 5 9 16 9 25 0 9 18 33 40 53 37 32 57 30 28 -3 -7
-8 -3 -6 10 4 12 11 22 14 22 8 0 -6 -8 -17 -19 -24 -10 -7 -31 -28 -47 -47
-21 -25 -23 -31 -9 -23 29 15 85 72 85 86 0 7 7 21 16 32 15 19 15 18 11 -3
-3 -13 -3 -23 -1 -23 7 0 64 133 59 138 -2 3 -15 -18 -26 -47 -12 -29 -25 -47
-29 -41 -5 7 -11 6 -20 -4 -7 -9 -17 -13 -22 -10 -5 3 -2 14 8 25 9 10 21 16
25 13 5 -3 9 2 9 10 0 9 -3 16 -7 16 -12 -1 -73 -58 -73 -68 0 -5 -10 -17 -21
-28 -18 -16 -16 -8 11 43 17 34 35 62 38 62 20 -3 34 5 73 41 28 26 45 36 50
29 4 -7 9 -3 14 10 4 13 4 25 1 28 -3 4 -6 1 -6 -6 0 -7 -5 -9 -10 -6 -6 4
-29 -8 -53 -26 -70 -55 -72 -55 -51 -24 11 17 31 53 43 80 13 28 29 57 36 65
8 8 13 17 13 20 -3 21 18 50 51 68 38 22 39 22 34 2 -3 -11 -13 -20 -22 -20
-10 0 -28 -12 -42 -26 l-24 -26 38 21 37 21 -6 -28 c-13 -53 4 -16 33 73 78
236 86 280 42 226 -23 -28 -25 -49 -4 -31 9 8 15 9 15 2 0 -11 -39 -42 -53
-42 -4 0 -5 6 0 13 4 6 8 18 9 25 4 25 56 85 64 73 4 -7 20 23 37 66 22 55 27
80 19 85 -10 7 -9 9 13 12 15 2 26 16 13 16 -16 0 -15 30 1 32 6 0 17 2 22 2
15 3 85 50 85 59 0 9 3 10 -56 -18z m-112 -157 c-7 -7 -12 -8 -12 -2 0 6 3 14
7 17 3 4 9 5 12 2 2 -3 -1 -11 -7 -17z m-7 -47 c-3 -6 -11 -11 -17 -11 -6 0
-6 6 2 15 14 17 26 13 15 -4z m-85 -200 c-19 -16 -36 -28 -38 -26 -7 7 19 45
28 40 5 -3 11 -1 15 5 3 5 12 10 18 10 7 0 -4 -14 -23 -29z m10 -28 c0 -5 -5
-15 -10 -23 -8 -12 -10 -11 -10 8 0 12 5 22 10 22 6 0 10 -3 10 -7z m-57 -49
c-4 -12 0 -14 23 -9 l29 7 -29 -16 c-16 -9 -35 -24 -42 -34 -7 -9 -14 -12 -14
-6 0 6 7 17 15 24 8 7 12 16 9 21 -3 5 -2 14 1 19 10 15 15 12 8 -6z m-313
-877 c0 -2 -11 -26 -25 -54 -24 -51 -125 -168 -125 -146 0 6 7 19 16 27 8 9
11 16 5 16 -6 0 -22 -17 -35 -39 -13 -21 -42 -53 -64 -72 -21 -19 -44 -44 -51
-56 -12 -23 -49 -48 -58 -40 -3 3 13 29 34 59 22 29 50 71 63 93 30 50 118
137 123 121 3 -6 -7 -24 -22 -41 -34 -38 -2 -16 57 39 40 38 56 65 30 50 -7
-4 -2 5 11 19 21 23 41 35 41 24z m-95 -186 c-3 -6 -11 -11 -17 -11 -6 0 -6 6
2 15 14 17 26 13 15 -4z m-66 -80 c-19 -22 -50 -45 -69 -52 -30 -10 -32 -13
-15 -19 18 -7 13 -15 -45 -73 -73 -73 -134 -117 -162 -117 -10 0 -37 -9 -58
-20 -63 -32 -47 -6 25 42 36 23 65 48 65 55 0 6 9 18 20 26 11 8 18 16 15 19
-3 3 2 11 12 19 15 12 16 12 10 -3 -5 -14 4 -12 45 10 31 17 52 36 54 48 2 10
13 26 25 34 13 8 41 30 62 48 51 42 59 34 16 -17z m-407 -304 c-7 -8 -9 -17
-5 -21 4 -4 1 -4 -8 -1 -16 6 -59 -25 -59 -43 0 -16 -82 -38 -125 -33 -5 1 17
14 50 30 33 16 80 42 105 59 45 31 63 35 42 9z"/>
<path d="M741 855 c-29 -20 -30 -24 -12 -22 22 1 58 33 49 42 -2 3 -19 -6 -37
-20z"/>
<path d="M1508 2635 c-3 -3 -70 -7 -149 -10 -79 -2 -146 -5 -149 -6 -3 -1 -30
-3 -60 -3 -183 -4 -231 -7 -226 -14 3 -5 -17 -7 -44 -4 -36 3 -50 1 -50 -8 0
-7 7 -10 15 -6 8 3 15 1 15 -4 0 -6 -8 -10 -18 -10 -9 0 -40 -8 -67 -19 -79
-30 -92 -33 -57 -15 17 10 32 21 32 26 0 38 -118 -76 -158 -152 -49 -96 -42
-142 34 -216 27 -27 58 -47 77 -50 l32 -6 -25 15 c-25 14 -27 18 -15 50 4 10
3 17 -4 17 -6 0 -11 -7 -11 -15 0 -8 -6 -15 -14 -15 -16 0 -31 53 -20 71 3 6
0 15 -7 20 -11 8 -9 13 10 29 18 15 19 20 7 20 -23 0 -20 16 9 38 17 13 21 22
13 24 -10 4 -10 8 1 21 7 10 19 17 25 17 7 0 25 14 41 30 67 69 194 112 370
125 50 4 99 10 110 15 11 5 86 12 168 15 81 4 147 11 147 16 0 10 -23 12 -32
4z m-718 -119 c0 -4 -128 -66 -136 -66 -9 0 -3 29 8 36 7 4 8 3 4 -4 -10 -17
-5 -15 56 13 52 24 68 29 68 21z m-80 -60 c0 -7 -52 -38 -67 -40 -9 -2 -20
-11 -25 -22 -9 -16 -8 -17 3 -6 7 6 17 12 21 12 16 0 8 -17 -24 -50 -22 -22
-27 -31 -14 -27 15 6 17 4 10 -10 -4 -10 -7 -31 -6 -48 1 -28 0 -29 -13 -11
-16 22 -21 106 -6 106 6 0 9 8 8 18 -1 25 34 76 43 62 6 -9 15 -8 36 4 32 17
34 18 34 12z"/>
<path d="M1728 2613 c-22 -26 -37 -56 -58 -123 -16 -50 -18 -83 -16 -217 2
-92 11 -193 20 -243 10 -47 21 -114 26 -150 5 -36 16 -94 24 -130 9 -36 28
-117 43 -180 14 -63 37 -140 51 -170 31 -68 62 -158 62 -179 0 -9 6 -25 13
-37 6 -12 33 -62 60 -112 57 -110 102 -173 141 -196 17 -10 26 -22 23 -30 -5
-12 11 -26 29 -26 2 0 3 26 3 58 -2 52 -2 54 -9 22 -5 -23 -7 -3 -5 55 2 50 7
104 11 120 4 20 3 27 -4 20 -5 -5 -12 -19 -15 -30 -3 -11 -5 5 -5 35 0 30 4
69 9 85 5 17 17 83 28 147 11 64 25 126 31 138 6 11 9 24 6 29 -3 4 4 39 15
77 10 38 22 87 24 109 6 42 20 96 35 130 13 29 32 106 27 111 -2 2 -10 -15
-17 -38 -7 -24 -22 -61 -33 -83 -12 -22 -20 -45 -19 -52 2 -7 -4 -29 -13 -49
-17 -41 -19 -56 -5 -34 14 21 13 -2 -2 -37 -6 -15 -11 -31 -10 -34 1 -4 -7
-28 -17 -55 -33 -88 -34 -91 -22 -74 9 13 11 13 11 -2 0 -10 -9 -27 -19 -37
-10 -10 -22 -30 -26 -43 -4 -16 -3 -19 3 -9 7 10 11 10 17 1 4 -7 2 -15 -4
-19 -6 -4 -21 -38 -34 -76 -13 -38 -29 -71 -37 -73 -13 -5 -13 -6 7 133 3 22
3 37 -1 34 -4 -4 -14 -62 -21 -130 -8 -67 -17 -131 -21 -141 -3 -10 -1 -18 5
-18 5 0 12 8 15 17 2 10 5 0 4 -22 0 -88 6 -106 12 -35 3 41 10 84 15 94 6 15
5 17 -4 11 -17 -10 -7 22 25 88 32 63 38 60 10 -5 -23 -54 -33 -152 -17 -162
11 -7 13 -94 2 -100 -5 -3 -7 -24 -6 -46 1 -22 0 -40 -2 -40 -14 0 -84 90 -92
117 -5 18 -15 39 -23 46 -7 8 -26 53 -42 100 -15 48 -32 87 -37 87 -5 0 -9 10
-9 23 0 12 -9 40 -20 62 -11 22 -20 55 -20 75 0 22 -3 30 -8 22 -21 -32 -130
407 -118 471 5 25 3 28 -5 17 -8 -12 -9 -9 -5 11 3 14 -4 73 -15 130 -15 78
-20 144 -20 266 0 183 8 224 51 270 16 18 30 34 30 37 0 12 -17 5 -32 -11z"/>
<path d="M2706 2043 c-4 -16 -9 -36 -12 -45 -3 -10 -1 -18 3 -18 9 0 33 57 33
78 0 23 -18 12 -24 -15z"/>
<path d="M1387 2018 c-15 -11 -27 -23 -27 -28 0 -12 49 13 55 29 8 21 2 21
-28 -1z"/>
<path d="M1421 1989 c-6 -18 -9 -34 -7 -36 2 -2 9 10 16 27 7 17 10 33 8 36
-3 3 -11 -9 -17 -27z"/>
<path d="M1355 1955 c-22 -19 -35 -34 -30 -35 14 0 81 57 75 63 -3 3 -23 -10
-45 -28z"/>
<path d="M1731 1864 c0 -11 3 -14 6 -6 3 7 2 16 -1 19 -3 4 -6 -2 -5 -13z"/>
<path d="M1741 1804 c0 -11 3 -14 6 -6 3 7 2 16 -1 19 -3 4 -6 -2 -5 -13z"/>
<path d="M1762 1715 c0 -16 2 -22 5 -12 2 9 2 23 0 30 -3 6 -5 -1 -5 -18z"/>
<path d="M1197 1666 c-4 -10 -1 -13 8 -9 8 3 12 9 9 14 -7 12 -11 11 -17 -5z"/>
<path d="M1167 1603 c-12 -12 -7 -22 8 -17 8 4 15 10 15 15 0 11 -14 12 -23 2z"/>
<path d="M1802 1570 c0 -14 2 -19 5 -12 2 6 2 18 0 25 -3 6 -5 1 -5 -13z"/>
<path d="M1811 1524 c0 -11 3 -14 6 -6 3 7 2 16 -1 19 -3 4 -6 -2 -5 -13z"/>
<path d="M2662 1358 c-5 -7 -13 -24 -16 -38 -7 -24 -7 -25 9 -5 25 31 37 55
27 55 -5 0 -14 -6 -20 -12z"/>
<path d="M2635 1054 c-29 -66 -30 -71 -10 -54 10 8 15 9 15 2 0 -6 -7 -15 -15
-20 -12 -6 -13 -14 -7 -32 7 -19 10 -20 15 -7 4 10 24 18 54 22 53 7 78 14 72
19 -2 2 -27 0 -55 -3 l-52 -7 4 45 c1 25 6 56 10 69 12 42 -6 22 -31 -34z"/>
<path d="M2081 1044 c0 -11 3 -14 6 -6 3 7 2 16 -1 19 -3 4 -6 -2 -5 -13z"/>
<path d="M2795 990 c-30 -8 -30 -8 8 -9 23 -1 36 3 32 9 -3 6 -7 9 -8 9 -1 -1
-15 -5 -32 -9z"/>
<path d="M2898 993 c7 -3 16 -2 19 1 4 3 -2 6 -13 5 -11 0 -14 -3 -6 -6z"/>
<path d="M2988 993 c7 -3 16 -2 19 1 4 3 -2 6 -13 5 -11 0 -14 -3 -6 -6z"/>
<path d="M3070 990 c19 -13 30 -13 30 0 0 6 -10 10 -22 10 -19 0 -20 -2 -8
-10z"/>
<path d="M2611 904 c0 -11 3 -14 6 -6 3 7 2 16 -1 19 -3 4 -6 -2 -5 -13z"/>
<path d="M2141 794 c0 -11 3 -14 6 -6 3 7 2 16 -1 19 -3 4 -6 -2 -5 -13z"/>
</g>
</svg>
