<?xml version="1.0" standalone="no"?>
<!DOCTYPE svg PUBLIC "-//W3C//DTD SVG 20010904//EN"
 "http://www.w3.org/TR/2001/REC-SVG-20010904/DTD/svg10.dtd">
<svg version="1.0" xmlns="http://www.w3.org/2000/svg"
 width="332.000000pt" height="332.000000pt" viewBox="0 0 332.000000 332.000000"
 preserveAspectRatio="xMidYMid meet">
<metadata>
Created by potrace 1.14, written by Peter Selinger 2001-2017
</metadata>
<g transform="translate(0.000000,332.000000) scale(0.100000,-0.100000)"
fill="#000000" stroke="none">
<path d="M2810 2723 c0 -6 -15 -21 -32 -32 -40 -26 -91 -63 -137 -99 -19 -15
-38 -26 -43 -24 -4 1 -8 -4 -8 -12 0 -8 -35 -66 -79 -128 -43 -62 -103 -158
-133 -213 -30 -55 -69 -122 -87 -149 -31 -50 -43 -88 -16 -52 25 32 17 9 -16
-49 -17 -30 -28 -59 -24 -65 11 -17 -77 -223 -87 -208 -6 9 -7 5 -3 -9 8 -31
-5 -79 -17 -61 -7 9 -8 6 -5 -10 3 -13 -8 -65 -24 -116 -17 -54 -35 -148 -44
-222 -8 -71 -18 -143 -21 -161 -4 -23 -2 -33 6 -33 7 0 10 -7 6 -15 -3 -8 -2
-25 3 -38 4 -12 11 -41 15 -65 l6 -42 -30 31 c-16 18 -35 49 -40 71 -6 21 -15
38 -20 38 -6 0 -10 7 -10 15 0 8 -5 23 -10 33 -16 26 -116 330 -130 392 -7 30
-20 82 -30 115 -10 33 -26 96 -35 140 -10 44 -25 116 -35 160 -46 206 -53 273
-47 434 3 86 10 167 15 181 6 14 25 40 43 58 23 24 29 36 21 44 -17 17 -56
-30 -82 -98 -19 -48 -25 -86 -30 -209 -4 -82 -3 -154 1 -160 4 -5 9 -30 11
-55 9 -89 41 -295 49 -315 9 -24 41 -171 43 -202 0 -12 4 -25 9 -29 4 -4 7
-18 7 -30 0 -33 41 -154 62 -184 9 -14 22 -47 29 -75 6 -27 17 -72 24 -100 8
-27 17 -63 21 -80 l7 -30 7 25 c6 23 11 17 49 -55 48 -91 109 -181 140 -206
15 -13 21 -29 21 -61 0 -23 4 -54 8 -68 4 -16 9 17 12 90 6 121 4 143 -11 134
-12 -7 -3 103 10 139 14 36 14 37 -3 37 -8 0 -16 -6 -19 -12 -8 -27 1 79 11
117 6 22 16 74 22 115 6 41 17 98 24 125 20 75 64 264 72 310 4 22 10 45 14
50 3 6 12 30 19 55 16 55 48 145 66 185 7 17 23 59 35 95 27 83 41 111 51 104
5 -3 6 2 3 10 -3 8 4 24 15 35 12 12 20 24 20 29 -3 19 2 33 10 28 5 -3 14 7
21 23 6 16 27 46 47 67 44 48 98 116 98 124 0 3 4 4 9 2 5 -2 24 12 43 30 l35
33 -6 -37 c-3 -21 -9 -55 -12 -75 -3 -21 -10 -43 -14 -48 -9 -11 -11 -36 -10
-134 1 -29 -9 -101 -20 -160 -12 -58 -23 -135 -25 -171 -2 -36 -9 -92 -15
-125 -6 -33 -13 -90 -15 -126 -3 -36 -11 -82 -20 -102 -19 -45 -20 -81 -2 -74
10 4 12 -8 10 -47 -2 -28 -5 -82 -7 -121 -2 -38 -7 -82 -11 -97 -5 -19 -3 -28
5 -28 8 0 9 -10 4 -32 -4 -18 -9 -55 -10 -83 -1 -27 -6 -80 -10 -118 -6 -61
-5 -69 15 -86 20 -17 20 -20 5 -64 -9 -26 -14 -54 -12 -64 2 -10 13 11 24 46
22 75 19 73 174 90 127 14 227 14 235 1 5 -8 11 -7 21 0 7 7 19 10 26 7 8 -4
7 -6 -4 -6 -22 -1 -24 -21 -2 -21 18 0 44 24 44 40 0 9 -49 11 -197 7 -109 -3
-211 -9 -227 -13 -28 -7 -29 -6 -23 25 4 17 2 31 -3 31 -5 0 -2 16 8 37 13 27
14 37 5 40 -7 3 -13 18 -13 34 0 16 6 38 13 49 9 16 9 22 0 28 -19 12 -19 78
0 100 19 20 23 52 7 52 -14 0 -13 56 1 83 9 16 9 22 0 25 -15 5 -14 48 1 75 7
13 13 69 14 142 1 66 4 143 8 170 3 28 7 66 9 85 1 19 9 50 16 69 11 26 12 36
3 39 -7 2 -10 7 -8 10 2 4 7 31 10 59 3 29 10 62 16 72 5 11 7 26 4 35 -3 8 2
29 13 46 13 23 15 33 6 38 -9 5 -9 19 -3 47 5 22 10 62 10 89 0 64 29 219 42
227 7 5 7 13 -1 25 -6 11 -11 14 -11 7z m-16 -70 c-4 -16 -10 -32 -15 -37 -7
-8 -4 17 7 52 7 24 14 11 8 -15z m-23 -106 c-10 -9 -11 -8 -5 6 3 10 9 15 12
12 3 -3 0 -11 -7 -18z m-1 -62 c0 -8 -7 -15 -16 -15 -14 0 -14 3 -4 15 7 8 14
15 16 15 2 0 4 -7 4 -15z m-8 -73 c-2 -16 -10 -29 -18 -29 -17 0 -18 11 -2 37
18 28 25 25 20 -8z m-23 -118 c-18 -22 -22 -11 -7 22 10 21 14 24 16 10 2 -9
-2 -24 -9 -32z m-389 -209 c-6 -15 -13 -25 -16 -23 -2 3 1 17 7 32 16 34 23
27 9 -9z m350 -41 c-18 -21 -24 -10 -8 15 7 12 14 17 16 11 2 -6 -2 -17 -8
-26z m-375 -16 c-12 -42 -30 -78 -38 -78 -4 0 0 17 9 38 9 20 18 43 21 50 9
21 15 13 8 -10z m363 -93 c-6 -14 -13 -23 -15 -21 -5 5 15 46 22 46 3 0 -1
-11 -7 -25z m-961 -67 c-3 -8 -6 -5 -6 6 -1 11 2 17 5 13 3 -3 4 -12 1 -19z
m948 -28 c-9 -18 -19 -30 -21 -27 -3 3 2 19 11 37 9 18 19 30 21 27 3 -3 -2
-19 -11 -37z m-414 3 c-12 -20 -14 -14 -5 12 4 9 9 14 11 11 3 -2 0 -13 -6
-23z m-524 -35 c-3 -8 -6 -5 -6 6 -1 11 2 17 5 13 3 -3 4 -12 1 -19z m10 -50
c-3 -8 -6 -5 -6 6 -1 11 2 17 5 13 3 -3 4 -12 1 -19z m448 -90 c-39 -92 -41
-103 -20 -94 12 4 11 -5 -6 -47 -44 -112 -59 -162 -50 -165 6 -2 6 -15 -1 -35
-17 -51 -31 -58 -24 -12 3 22 8 61 11 88 12 121 91 347 121 347 2 0 -12 -37
-31 -82z m-438 40 c-3 -7 -5 -2 -5 12 0 14 2 19 5 13 2 -7 2 -19 0 -25z m907
-36 c-15 -22 -19 -24 -22 -10 -2 9 5 29 15 44 15 23 19 25 21 11 2 -10 -4 -30
-14 -45z m-860 -133 c5 -38 3 -34 -14 21 -23 74 -25 99 -6 54 8 -17 16 -51 20
-75z m852 43 c-18 -16 -18 -16 -6 6 6 13 14 21 18 18 3 -4 -2 -14 -12 -24z
m-8 -104 c-6 -18 -13 -27 -15 -21 -4 11 13 53 22 53 2 0 -1 -15 -7 -32z m7
-90 c-8 -37 -25 -61 -25 -35 0 17 20 67 27 67 3 0 2 -15 -2 -32z m-571 -77
c-4 -23 -9 -40 -11 -37 -3 3 -2 23 2 46 4 23 9 39 11 37 3 -2 2 -23 -2 -46z
m552 -110 c-15 -14 -16 -13 -16 6 0 12 5 34 12 50 l12 28 4 -34 c2 -22 -2 -39
-12 -50z m-5 -124 c-31 -32 -36 -14 -10 39 l24 47 3 -33 c3 -23 -3 -39 -17
-53z m-554 -19 c-3 -8 -6 -5 -6 6 -1 11 2 17 5 13 3 -3 4 -12 1 -19z m27 -13
c-4 -8 -8 -15 -10 -15 -2 0 -4 7 -4 15 0 8 4 15 10 15 5 0 7 -7 4 -15z m512
-31 c-6 -19 -12 -28 -14 -20 -3 13 14 56 22 56 2 0 -2 -16 -8 -36z m-506 -15
c0 -5 -4 -7 -10 -4 -6 4 -11 -6 -11 -22 -1 -18 -3 -22 -6 -10 -3 10 -2 25 1
33 6 16 26 19 26 3z"/>
<path d="M1710 2663 c-82 -27 -118 -63 -160 -158 -18 -39 -49 -106 -70 -150
-21 -44 -59 -134 -85 -200 -54 -137 -71 -172 -149 -310 -31 -55 -82 -165 -113
-245 -32 -80 -83 -189 -115 -243 -32 -55 -58 -101 -58 -103 0 -13 -118 -206
-158 -259 -25 -33 -75 -88 -111 -123 -73 -70 -238 -185 -301 -209 -44 -18 -46
-20 -25 -47 18 -24 84 -17 146 17 245 132 307 186 511 436 51 63 119 202 210
431 27 69 56 135 64 147 7 12 14 27 14 32 0 6 11 34 24 63 13 29 36 80 51 113
32 73 125 346 125 369 0 9 5 16 11 16 5 0 8 4 5 8 -7 12 66 218 101 282 17 32
49 69 74 89 59 45 63 63 9 44z m-65 -73 c-3 -5 -12 -10 -18 -10 -7 0 -6 4 3
10 19 12 23 12 15 0z m-235 -544 c0 -2 -8 -10 -17 -17 -16 -13 -17 -12 -4 4
13 16 21 21 21 13z m2 -68 c-18 -50 -20 -53 -27 -46 -5 5 32 88 39 88 3 0 -3
-19 -12 -42z m-52 -52 c0 -2 -8 -10 -17 -17 -16 -13 -17 -12 -4 4 13 16 21 21
21 13z m-2 -83 c-26 -60 -42 -79 -32 -38 8 35 35 85 46 85 4 0 -2 -21 -14 -47z
m-43 -13 c-3 -5 -20 -19 -38 -30 l-32 -22 35 31 c35 32 46 38 35 21z m-2 -100
c-3 -12 -8 -19 -11 -16 -5 6 5 36 12 36 2 0 2 -9 -1 -20z m-31 -62 c-7 -7 -12
-8 -12 -2 0 6 3 14 7 17 3 4 9 5 12 2 2 -3 -1 -11 -7 -17z m-112 -101 c0 -2
-9 -12 -20 -22 -24 -21 -27 -14 -4 9 15 15 24 20 24 13z m20 -60 c0 -2 -10
-12 -22 -23 l-23 -19 19 23 c18 21 26 27 26 19z m-33 -136 c-12 -28 -30 -52
-41 -55 -17 -4 -16 -3 3 18 11 12 21 28 21 36 0 11 28 50 36 50 1 0 -7 -22
-19 -49z m-77 -74 c0 -2 -10 -12 -22 -23 l-23 -19 19 23 c18 21 26 27 26 19z
m23 -37 c-3 -11 -9 -17 -15 -14 -5 3 -4 12 3 20 16 19 18 18 12 -6z m-93 6 c0
-2 -8 -10 -17 -17 -16 -13 -17 -12 -4 4 13 16 21 21 21 13z m69 -58 c-6 -13
-27 -33 -47 -46 l-37 -23 45 45 c25 25 46 45 47 46 2 0 -2 -10 -8 -22z m-109
-51 c0 -2 -18 -21 -40 -42 -22 -21 -40 -35 -40 -31 0 5 17 24 37 42 35 32 43
38 43 31z m-85 -138 c-61 -62 -84 -70 -45 -16 18 26 38 43 45 41 7 -3 16 -1
20 5 3 6 9 11 13 11 3 0 -12 -18 -33 -41z m54 -10 c-17 -19 -28 -27 -24 -19
11 21 48 61 52 56 2 -2 -10 -19 -28 -37z m-80 -95 c-47 -52 -114 -112 -118
-108 -6 6 121 134 133 134 5 0 -1 -12 -15 -26z m-142 -116 c0 -13 -1 -18 -4
-11 -3 9 -22 3 -61 -19 -30 -18 -52 -26 -48 -20 5 9 98 69 111 72 1 0 1 -10 2
-22z m-247 -152 c0 -2 -9 -6 -20 -9 -11 -3 -20 -1 -20 4 0 5 9 9 20 9 11 0 20
-2 20 -4z m-63 -22 c-3 -3 -12 -4 -19 -1 -8 3 -5 6 6 6 11 1 17 -2 13 -5z"/>
<path d="M1485 2639 c-22 -5 -101 -9 -175 -8 -159 0 -400 -15 -479 -32 -110
-23 -176 -71 -239 -177 -23 -38 -32 -65 -32 -97 0 -59 27 -119 63 -140 16 -9
33 -30 39 -46 5 -16 14 -29 20 -29 6 0 8 6 5 13 -4 10 2 13 19 9 30 -5 34 23
4 31 -16 4 -19 11 -14 36 6 29 5 31 -25 31 -33 0 -39 8 -19 28 10 10 10 15 -2
23 -13 8 -13 11 3 23 22 17 22 40 0 32 -11 -4 -6 4 10 19 17 15 27 32 23 41
-4 9 3 18 17 23 12 5 33 21 46 35 39 42 103 74 177 90 117 24 199 36 252 36
28 0 52 4 54 9 2 5 70 12 151 15 82 3 153 8 158 11 13 9 11 35 -3 34 -7 -1
-31 -5 -53 -10z m-890 -325 c0 -14 -3 -28 -7 -30 -4 -3 -8 12 -8 32 0 41 13
39 15 -2z m75 -114 c0 -5 -4 -10 -10 -10 -5 0 -10 5 -10 10 0 6 5 10 10 10 6
0 10 -4 10 -10z"/>
<path d="M2202 1855 c-17 -37 -14 -45 4 -12 9 16 14 31 11 33 -2 2 -9 -7 -15
-21z"/>
<path d="M2171 1779 c-6 -18 -11 -37 -10 -43 0 -6 7 7 15 28 8 22 12 41 10 43
-2 2 -9 -10 -15 -28z"/>
<path d="M3150 954 c0 -8 5 -12 10 -9 6 3 10 10 10 16 0 5 -4 9 -10 9 -5 0
-10 -7 -10 -16z"/>
<path d="M3110 950 c0 -5 7 -10 15 -10 8 0 15 5 15 10 0 6 -7 10 -15 10 -8 0
-15 -4 -15 -10z"/>
<path d="M2150 600 c-8 -5 -11 -12 -7 -16 4 -4 13 -2 19 4 15 15 7 24 -12 12z"/>
<path d="M2110 569 c0 -5 5 -7 10 -4 6 3 10 8 10 11 0 2 -4 4 -10 4 -5 0 -10
-5 -10 -11z"/>
</g>
</svg>
